<svg xmlns="http://www.w3.org/2000/svg" width="124" height="32" viewBox="0 0 124 32" fill="none">
<path d="M121.002 28.0563C121.001 28.4239 120.855 28.7764 120.595 29.0362C120.335 29.296 119.982 29.4419 119.615 29.4419H115.206V32.0001H119.615C120.661 32.0001 121.664 31.5846 122.403 30.845C123.143 30.1054 123.558 29.1023 123.558 28.0563V23.6477H121.009L121.002 28.0563Z" fill="#00BFFF"/>
<path d="M2.5567 28.0563V23.6477H0V28.0563C0 28.5742 0.102009 29.0871 0.300202 29.5655C0.498394 30.044 0.788891 30.4788 1.1551 30.845C1.52132 31.2112 1.95607 31.5017 2.43455 31.6999C2.91303 31.8981 3.42587 32.0001 3.94377 32.0001H8.35239V29.4419H3.94377C3.57616 29.4419 3.22358 29.296 2.96349 29.0362C2.70341 28.7764 2.5571 28.4239 2.5567 28.0563Z" fill="#00BFFF"/>
<path d="M91.0353 19.4788L97.3033 15.2501C98.353 14.5304 99.0728 13.4207 99.0728 12.1311C99.0728 10.0318 97.4533 8.35229 95.4439 8.35229H87.1365V11.8612H94.2443C94.292 11.8593 94.3397 11.8673 94.3842 11.8847C94.4287 11.9021 94.4692 11.9286 94.503 11.9624C94.5368 11.9962 94.5632 12.0366 94.5806 12.0811C94.598 12.1257 94.6061 12.1733 94.6042 12.2211C94.6048 12.2828 94.5883 12.3435 94.5565 12.3964C94.5248 12.4494 94.479 12.4925 94.4242 12.521L88.1562 16.7497C87.1065 17.4694 86.3867 18.5791 86.3867 19.8687C86.3867 21.968 88.0062 23.6475 90.0156 23.6475H98.7429V20.1386H91.2152C91.1674 20.1405 91.1198 20.1325 91.0753 20.1151C91.0307 20.0977 90.9903 20.0712 90.9565 20.0374C90.9227 20.0036 90.8963 19.9632 90.8788 19.9187C90.8614 19.8741 90.8534 19.8265 90.8553 19.7787C90.8613 19.7186 90.8805 19.6604 90.9117 19.6086C90.9428 19.5567 90.985 19.5124 91.0353 19.4788Z" fill="#00BFFF"/>
<path d="M84.6172 8.35229H80.4785V23.6475H84.6172V8.35229Z" fill="#00BFFF"/>
<path d="M73.1007 14.0505H70.2216C70.073 14.0583 69.9244 14.0358 69.7848 13.9843C69.6453 13.9328 69.5176 13.8534 69.4097 13.751C69.3018 13.6486 69.2158 13.5252 69.1571 13.3885C69.0984 13.2519 69.0681 13.1046 69.0681 12.9559C69.0681 12.8071 69.0984 12.6599 69.1571 12.5232C69.2158 12.3865 69.3018 12.2632 69.4097 12.1608C69.5176 12.0583 69.6453 11.979 69.7848 11.9275C69.9244 11.876 70.073 11.8534 70.2216 11.8612H76.9995V8.35229H69.8317C67.1625 8.35229 65.0332 10.4816 65.0332 13.0608C65.0332 16.4498 67.3425 17.7394 70.2816 17.7394H73.1607C73.3249 17.7345 73.4884 17.7628 73.6414 17.8225C73.7944 17.8822 73.9339 17.9721 74.0514 18.0869C74.169 18.2016 74.2622 18.3388 74.3256 18.4904C74.3889 18.6419 74.4211 18.8047 74.4203 18.969C74.4203 19.6588 73.8804 20.1386 73.1607 20.1386H65.693V23.6475H73.5505C76.2797 23.6475 78.469 21.4882 78.469 18.849C78.469 15.4601 76.3997 14.0505 73.1007 14.0505Z" fill="#00BFFF"/>
<path d="M32.4639 8.35229H24.5164V11.8612H32.0741C32.2198 11.857 32.365 11.8816 32.5013 11.9337C32.6375 11.9857 32.7622 12.0641 32.868 12.1644C32.9739 12.2647 33.0589 12.385 33.1183 12.5182C33.1776 12.6514 33.21 12.7951 33.2137 12.9409V14.4704H27.6354C25.1162 14.4704 23.0469 16.1499 23.0469 19.059C23.052 20.2743 23.5371 21.4385 24.3965 22.2979C25.2559 23.1573 26.4201 23.6424 27.6354 23.6475H37.2624V13.0608C37.2624 10.4816 35.1331 8.35229 32.4639 8.35229ZM33.2137 20.1386H28.5651C28.1754 20.1386 27.8016 19.9838 27.526 19.7082C27.2504 19.4326 27.0956 19.0588 27.0956 18.6691C27.0956 18.2793 27.2504 17.9055 27.526 17.63C27.8016 17.3544 28.1754 17.1995 28.5651 17.1995H33.2137V20.1386Z" fill="#00BFFF"/>
<path d="M16.4181 14.0505H13.539C13.3904 14.0583 13.2418 14.0358 13.1022 13.9843C12.9626 13.9328 12.835 13.8534 12.7271 13.751C12.6192 13.6486 12.5332 13.5252 12.4745 13.3885C12.4158 13.2519 12.3855 13.1046 12.3855 12.9559C12.3855 12.8071 12.4158 12.6599 12.4745 12.5232C12.5332 12.3865 12.6192 12.2632 12.7271 12.1608C12.835 12.0583 12.9626 11.979 13.1022 11.9275C13.2418 11.876 13.3904 11.8534 13.539 11.8612H20.3168V8.35229H13.1491C10.4799 8.35229 8.35059 10.4816 8.35059 13.0608C8.35059 16.4498 10.6584 17.7394 13.5989 17.7394H16.478C16.6422 17.7345 16.8057 17.7628 16.9588 17.8225C17.1118 17.8822 17.2513 17.9721 17.3688 18.0869C17.4863 18.2016 17.5796 18.3388 17.643 18.4904C17.7063 18.6419 17.7385 18.8047 17.7377 18.969C17.7377 19.6588 17.1978 20.1386 16.478 20.1386H9.01188V23.6475H16.8679C19.5971 23.6475 21.7864 21.4882 21.7864 18.849C21.7864 15.4601 19.717 14.0505 16.4181 14.0505Z" fill="#00BFFF"/>
<path d="M115.206 15.9999C115.206 11.5913 113.047 7.99243 107.92 7.99243C103.601 7.99243 100.362 11.1414 100.362 15.9999C100.362 20.3486 103.721 23.6475 108.97 23.6475H113.288V20.1386H109.03C106.81 20.1386 105.191 19.1789 104.741 17.3195H115.088C115.163 16.8836 115.203 16.4423 115.206 15.9999ZM104.709 14.5604C104.919 12.9409 105.909 11.3814 107.948 11.3814C109.868 11.3814 110.918 12.611 111.097 14.5604H104.709Z" fill="#00BFFF"/>
<path d="M44.939 6.22324C44.9374 6.09677 44.9611 5.97125 45.0088 5.85408C45.0564 5.73692 45.1271 5.63048 45.2165 5.54104C45.306 5.4516 45.4124 5.38097 45.5296 5.33332C45.6467 5.28566 45.7722 5.26193 45.8987 5.26354H49.5276V1.75464H45.1789C42.4498 1.75464 40.8303 3.40412 40.8303 6.10328V8.35258H38.1611V11.8615H40.8303V23.6478H44.939V11.8615H48.8678V8.35258H44.939V6.22324Z" fill="#00BFFF"/>
<path d="M56.6358 7.99243C52.3171 7.99243 49.0781 11.1414 49.0781 15.9999C49.0781 20.3486 52.4371 23.6475 57.6854 23.6475H62.0041V20.1386H57.7454C55.5261 20.1386 53.9066 19.1789 53.4568 17.3195H63.8035C63.8802 16.8838 63.9203 16.4424 63.9235 15.9999C63.9235 11.5913 61.7642 7.99243 56.6358 7.99243ZM53.4268 14.5604C53.6367 12.9409 54.6264 11.3814 56.6658 11.3814C58.5852 11.3814 59.6348 12.611 59.8148 14.5604H53.4268Z" fill="#00BFFF"/>
<path d="M82.5479 6.52289C83.9724 6.52289 85.1271 5.36815 85.1271 3.9437C85.1271 2.51925 83.9724 1.3645 82.5479 1.3645C81.1235 1.3645 79.9688 2.51925 79.9688 3.9437C79.9688 5.36815 81.1235 6.52289 82.5479 6.52289Z" fill="#00BFFF"/>
<path d="M119.615 0H115.206V2.5582H119.615C119.982 2.5582 120.335 2.70414 120.595 2.96394C120.855 3.22374 121.001 3.57616 121.002 3.94377V8.35239H123.551V3.94377C123.551 2.89912 123.136 1.89714 122.398 1.15775C121.661 0.418368 120.659 0.00198604 119.615 0Z" fill="#00BFFF"/>
<path d="M2.5567 3.94377C2.5571 3.57616 2.70341 3.22374 2.96349 2.96394C3.22358 2.70414 3.57616 2.5582 3.94377 2.5582H8.35239V0H3.94377C2.89782 0 1.8947 0.415503 1.1551 1.1551C0.415503 1.8947 0 2.89782 0 3.94377V8.35239H2.5567V3.94377Z" fill="#00BFFF"/>
</svg>